<?xml version="1.0" encoding="UTF-8" standalone="no"?>
<!-- Generator: Adobe Illustrator 19.0.0, SVG Export Plug-In . SVG Version: 6.00 Build 0)  -->

<svg
   xmlns:dc="http://purl.org/dc/elements/1.1/"
   xmlns:cc="http://creativecommons.org/ns#"
   xmlns:rdf="http://www.w3.org/1999/02/22-rdf-syntax-ns#"
   xmlns:svg="http://www.w3.org/2000/svg"
   xmlns="http://www.w3.org/2000/svg"
   xmlns:sodipodi="http://sodipodi.sourceforge.net/DTD/sodipodi-0.dtd"
   xmlns:inkscape="http://www.inkscape.org/namespaces/inkscape"
   version="1.1"
   id="Layer_1"
   x="0px"
   y="0px"
   viewBox="0 0 297 297"
   style="enable-background:new 0 0 297 297;"
   xml:space="preserve"
   sodipodi:docname="logo.svg"
   inkscape:version="0.92.4 (5da689c313, 2019-01-14)"
   inkscape:export-filename="C:\Users\cpatterson\Downloads\logo.png"
   inkscape:export-xdpi="82.75"
   inkscape:export-ydpi="82.75"><metadata
   id="metadata57"><rdf:RDF><cc:Work
       rdf:about=""><dc:format>image/svg+xml</dc:format><dc:type
         rdf:resource="http://purl.org/dc/dcmitype/StillImage" /><dc:title></dc:title></cc:Work></rdf:RDF></metadata><defs
   id="defs55" /><sodipodi:namedview
   pagecolor="#ffffff"
   bordercolor="#666666"
   borderopacity="1"
   objecttolerance="10"
   gridtolerance="10"
   guidetolerance="10"
   inkscape:pageopacity="0"
   inkscape:pageshadow="2"
   inkscape:window-width="1920"
   inkscape:window-height="1017"
   id="namedview53"
   showgrid="false"
   inkscape:zoom="2.2475044"
   inkscape:cx="111.03229"
   inkscape:cy="140.34479"
   inkscape:window-x="1912"
   inkscape:window-y="-8"
   inkscape:window-maximized="1"
   inkscape:current-layer="g20" />
<g
   id="g20">
	<g
   id="g8">
		<g
   id="g6">
			<g
   id="g4">
				<circle
   style="fill:#345065;"
   cx="148.5"
   cy="148.5"
   r="148.5"
   id="circle2" />
			</g>
		</g>
	</g>
	<path
   style="fill:#213947;stroke-width:1.1944356"
   d="M 242.49609 63.310547 L 44.285156 214.48633 L 132.04297 296.01172 A 148.5 148.5 0 0 0 148.5 297 A 148.5 148.5 0 0 0 297 148.5 A 148.5 148.5 0 0 0 291.62695 108.95117 L 242.49609 63.310547 z "
   id="path10" />
	<path
   style="fill:#d0d5d9;stroke-width:1.1944356"
   d="m 145.25421,139.42108 c 11.16326,0.68728 18.10311,4.96066 28.89087,8.50875 0.32097,-0.061 0.66796,-0.15771 1.02363,-0.26823 l 37.50372,-52.565283 c 10.54115,6.489493 24.74927,3.812882 31.73497,-5.97835 6.98571,-9.791233 4.10443,-22.991265 -6.43547,-29.480763 -10.54115,-6.489497 -24.74926,-3.812882 -31.73497,5.978351 6.98571,-9.792384 4.10443,-22.991265 -6.43548,-29.480762 -10.54115,-6.489498 -24.74926,-3.812882 -31.73497,5.97835 -6.98571,9.792384 -4.10443,22.991265 6.43548,29.480762 l -39.89674,55.919975 c 5.5965,2.35657 10.95382,5.61801 10.64896,11.9072 z"
   id="path12"
   inkscape:connector-curvature="0" />
	<path
   style="fill:#d0d5d9;stroke-width:1.1944356"
   d="m 109.31691,215.21938 49.14162,-45.65098 c -0.37302,0.0426 -0.73365,0.0737 -1.06081,0.0737 -9.81246,-5.46951 -15.70019,-10.93901 -26.49414,-13.67319 1.64326,-6.10729 -2.90979,-10.29317 -7.89037,-13.6352 l -46.078167,42.80513 c -8.941261,-8.30614 -23.439364,-8.30614 -32.380625,0 -8.941261,8.30614 -8.941261,21.77441 0,30.08056 8.941261,8.30614 23.439364,8.30614 32.380625,0 -8.941261,8.30614 -8.941261,21.77441 0,30.08055 8.941261,8.30614 23.439367,8.30614 32.380627,0 8.9425,-8.30614 8.9425,-21.77441 0.001,-30.08055 z"
   id="path14"
   inkscape:connector-curvature="0" />
	<path
   style="fill:#bdc2c6;stroke-width:1.1944356"
   d="m 237.97069,59.637204 c -10.53991,-6.489497 -24.74926,-3.812882 -31.73497,5.978351 6.98571,-9.792384 4.10443,-22.991265 -6.43548,-29.480762 -10.54115,-6.489498 -24.74926,-3.814034 -31.73497,5.97835 -6.98571,9.792384 -4.10443,22.991265 6.43548,29.480762 l -34.26182,48.022515 v 10.85612 c 3.05353,2.10561 5.21108,4.8962 5.01528,8.94738 11.16326,0.68729 18.10311,4.96066 28.89087,8.50876 0.32097,-0.0599 0.66796,-0.15772 1.02363,-0.26823 l 37.50372,-52.565284 c 10.54115,6.489494 24.74927,3.814033 31.73497,-5.978351 6.98571,-9.790081 4.10443,-22.988962 -6.43671,-29.479611 z"
   id="path16"
   inkscape:connector-curvature="0" />
	<path
   style="fill:#bdc2c6;stroke-width:1.1944356"
   d="m 157.39772,169.64208 c -6.59782,-3.67704 -11.42474,-7.35062 -17.15879,-10.19762 v 27.04821 l 18.21836,-16.92427 c -0.37178,0.0426 -0.73241,0.0737 -1.05957,0.0737 z"
   id="path18"
   inkscape:connector-curvature="0" />
</g>
<g
   id="g22">
</g>
<g
   id="g24">
</g>
<g
   id="g26">
</g>
<g
   id="g28">
</g>
<g
   id="g30">
</g>
<g
   id="g32">
</g>
<g
   id="g34">
</g>
<g
   id="g36">
</g>
<g
   id="g38">
</g>
<g
   id="g40">
</g>
<g
   id="g42">
</g>
<g
   id="g44">
</g>
<g
   id="g46">
</g>
<g
   id="g48">
</g>
<g
   id="g50">
</g>
</svg>